# xmcd
#
# Track frame offsets: 
#        150
#        20267
#        33480
#        52112
#        67037
#        86097
#        102180
#        120562
#        136395
#        149717
#        165730
#
# Disc length: 2421 seconds
#
# Revision: 6
# Processed by: cddbd v1.5.2PL0 Copyright (c) Steve Scherf et al.
# Submitted via: ExactAudioCopyFreeDBPlugin 1.0
#
DISCID=9f09730b
DTITLE=Delbert McClinton - Never Been Rocked Enough
DYEAR=1992
DGENRE=Blues
TTITLE0=Everytime I Roll The Dice
TTITLE1=I Used To Worry [feat. Francine Reed]
TTITLE2=Miss You Fever
TTITLE3=Why Me? [feat. Tom Petty]
TTITLE4=Have A Little Faith In Me
TTITLE5=Never Been Rocked Enough
TTITLE6=Blues As Blues Can Get
TTITLE7=Can I Change My Mind [feat. Melissa Etheridge]
TTITLE8=Cease And Desist
TTITLE9=Stir It Up
TTITLE10=Good Man, Good Woman [feat. Bonnie Raitt]
EXTD=
EXTT0=
EXTT1=
EXTT2=
EXTT3=
EXTT4=
EXTT5=
EXTT6=
EXTT7=
EXTT8=
EXTT9=
EXTT10=
PLAYORDER=
